<?xml version="1.0"?>
<svg xmlns="http://www.w3.org/2000/svg" xmlns:xlink="http://www.w3.org/1999/xlink" xmlns:svgjs="http://svgjs.com/svgjs" version="1.1" width="512" height="512" x="0" y="0" viewBox="0 0 512.005 512.005" style="enable-background:new 0 0 512 512" xml:space="preserve" class=""><g><g xmlns="http://www.w3.org/2000/svg"><path d="m247.002 72.001c11.531 8.648 11.421 12.434 0 21-6.627 4.97-7.971 14.373-3 21 4.938 6.585 14.33 8.002 21 3 28.259-21.194 27.277-48.542 0-69-11.531-8.648-11.421-12.435 0-21 6.627-4.971 7.971-14.373 3-21-4.97-6.627-14.372-7.971-21-3-28.254 21.191-27.279 48.54 0 69z" fill="#3fb5de" data-original="#000000" style="" class=""/><path d="m322.002 72.001c11.53 8.648 11.42 12.435 0 21-6.627 4.97-7.971 14.373-3 21 4.939 6.585 14.331 8.002 21 3 28.203-21.152 27.335-48.498 0-69-11.553-8.665-11.397-12.451 0-21 6.628-4.971 7.971-14.373 3-21-4.971-6.628-14.373-7.97-21-3-28.202 21.152-27.335 48.499 0 69z" fill="#3fb5de" data-original="#000000" style="" class=""/><path d="m172.002 72.001c11.531 8.648 11.421 12.434 0 21-6.627 4.97-7.971 14.373-3 21 4.938 6.585 14.33 8.002 21 3 28.255-21.191 27.279-48.54 0-69-11.531-8.648-11.421-12.435 0-21 6.627-4.971 7.971-14.373 3-21-4.97-6.627-14.372-7.971-21-3-28.254 21.191-27.279 48.54 0 69z" fill="#3fb5de" data-original="#000000" style="" class=""/><path d="m497.002 122.001h-61c-8.284 0-15 6.716-15 15v15h-330v-15c0-8.284-6.716-15-15-15h-61c-8.284 0-15 6.716-15 15s6.716 15 15 15h46v15c0 107.523 87.477 195 195 195s195-87.477 195-195v-15h46c8.284 0 15-6.716 15-15s-6.716-15-15-15z" fill="#3fb5de" data-original="#000000" style="" class=""/><path d="m349.962 371.431c-9.04 4.18-18.41 7.77-28.05 10.72l13.282 39.85h-64.192v-30.5c-4.96.33-9.96.5-15 .5s-10.04-.17-15-.5v30.5h-64.192l13.282-39.85c-9.64-2.95-19.01-6.54-28.05-10.72l-40.27 120.83c-2.62 7.86 1.63 16.35 9.49 18.97s16.35-1.63 18.97-9.49l16.579-49.74h74.191v45c0 8.28 6.72 15 15 15s15-6.72 15-15v-45h74.191l16.579 49.74c2.62 7.86 11.11 12.11 18.97 9.49s12.11-11.11 9.49-18.97z" fill="#3fb5de" data-original="#000000" style="" class=""/></g></g></svg>
