<svg width="457" height="128" viewBox="0 0 457 128" fill="none" xmlns="http://www.w3.org/2000/svg">
<path d="M191.413 75.6068C191.413 74.5348 191.247 73.5818 190.913 72.748C190.603 71.9141 190.043 71.1517 189.233 70.4609C188.423 69.77 187.28 69.1029 185.803 68.4596C184.349 67.7926 182.491 67.1136 180.228 66.4227C177.75 65.6603 175.463 64.8146 173.367 63.8854C171.294 62.9325 169.483 61.8366 167.935 60.5977C166.386 59.3351 165.183 57.8937 164.325 56.2737C163.468 54.6298 163.039 52.7358 163.039 50.5917C163.039 48.4713 163.48 46.5416 164.361 44.8024C165.266 43.0633 166.541 41.5624 168.185 40.2997C169.853 39.0132 171.818 38.0245 174.081 37.3336C176.345 36.6189 178.846 36.2615 181.586 36.2615C185.445 36.2615 188.769 36.9763 191.556 38.4057C194.367 39.8351 196.524 41.753 198.024 44.1592C199.549 46.5654 200.312 49.2218 200.312 52.1283H191.413C191.413 50.413 191.044 48.9002 190.305 47.5898C189.591 46.2557 188.495 45.2074 187.018 44.4451C185.564 43.6827 183.718 43.3015 181.479 43.3015C179.358 43.3015 177.595 43.6232 176.19 44.2664C174.784 44.9096 173.736 45.7792 173.045 46.8751C172.354 47.971 172.009 49.2099 172.009 50.5917C172.009 51.5684 172.235 52.4618 172.688 53.2719C173.14 54.058 173.831 54.7966 174.76 55.4875C175.689 56.1546 176.857 56.7859 178.262 57.3815C179.668 57.9771 181.324 58.5489 183.23 59.0968C186.112 59.9545 188.626 60.9074 190.77 61.9557C192.914 62.9801 194.701 64.1475 196.13 65.4578C197.56 66.7681 198.632 68.2571 199.347 69.9248C200.061 71.5687 200.419 73.4388 200.419 75.5354C200.419 77.7272 199.978 79.7046 199.097 81.4675C198.215 83.2067 196.952 84.6957 195.308 85.9345C193.688 87.1495 191.735 88.0906 189.448 88.7577C187.185 89.4009 184.659 89.7225 181.872 89.7225C179.37 89.7225 176.904 89.389 174.474 88.7219C172.068 88.0549 169.876 87.0423 167.899 85.6844C165.922 84.3026 164.349 82.5873 163.182 80.5384C162.014 78.4657 161.431 76.0476 161.431 73.284H170.401C170.401 74.9755 170.686 76.4168 171.258 77.608C171.854 78.7992 172.676 79.776 173.724 80.5384C174.772 81.2769 175.987 81.8249 177.369 82.1822C178.775 82.5396 180.276 82.7183 181.872 82.7183C183.968 82.7183 185.719 82.4205 187.125 81.8249C188.554 81.2293 189.626 80.3954 190.341 79.3234C191.056 78.2513 191.413 77.0124 191.413 75.6068ZM227.648 79.502L241.335 36.9763H251.234L232.58 89.0078H225.897L227.648 79.502ZM214.998 36.9763L228.577 79.502L230.436 89.0078H223.717L205.134 36.9763H214.998ZM268.1 36.9763V89.0078H259.13V36.9763H268.1Z" fill="#FFC84A"/>
<path d="M313.304 81.8964V89.0078H287.181V81.8964H313.304ZM289.683 36.9763V89.0078H280.713V36.9763H289.683ZM342.678 43.909L327.133 89.0078H317.734L337.317 36.9763H343.321L342.678 43.909ZM355.686 89.0078L340.105 43.909L339.426 36.9763H345.465L365.12 89.0078H355.686ZM354.935 69.7104V76.8219H326.632V69.7104H354.935ZM381.378 36.9763V89.0078H372.409V36.9763H381.378ZM412.647 36.9763L391.563 62.0272L379.556 74.7492L377.984 65.8509L386.56 55.2731L401.712 36.9763H412.647ZM402.999 89.0078L385.881 64.35L392.064 58.2392L413.648 89.0078H402.999ZM454.171 81.8964V89.0078H426.547V81.8964H454.171ZM429.085 36.9763V89.0078H420.115V36.9763H429.085ZM450.562 58.7037V65.708H426.547V58.7037H450.562ZM453.993 36.9763V44.1235H426.547V36.9763H453.993Z" fill="#4AAACF"/>
<ellipse cx="67.8936" cy="60.0942" rx="20.967" ry="21.033" fill="#FFC84A"/>
<path d="M66.6608 2.17715C67.1306 1.03625 68.5093 0.590799 69.5575 1.24126L78.1743 6.58829C79.1285 7.18043 79.4106 8.443 78.799 9.38443L67.3518 27.0046C66.6482 28.0877 65.1191 28.2267 64.2298 27.2885L59.61 22.4148C59.0663 21.8412 58.9098 21.0012 59.2106 20.2708L66.6608 2.17715Z" fill="#FFC84A"/>
<path d="M104.239 10.9069C105.136 10.2209 106.42 10.4134 107.075 11.3321L111.617 17.7004C112.3 18.6585 112.013 19.9991 110.998 20.5944L93.3023 30.9662C92.1349 31.6505 90.6422 31.0005 90.3464 29.6791L89.0698 23.9764C88.899 23.2131 89.1875 22.4194 89.8086 21.9444L104.239 10.9069Z" fill="#FFC84A"/>
<path d="M122.491 35.0906C123.598 34.868 124.669 35.6052 124.857 36.7185L126.157 44.442C126.353 45.6026 125.509 46.6805 124.335 46.7692L103.9 48.3129C102.551 48.4148 101.493 47.1759 101.804 45.8593L103.149 40.169C103.328 39.4081 103.935 38.8215 104.702 38.6674L122.491 35.0906Z" fill="#FFC84A"/>
<path d="M123.349 67.0649C124.227 67.5543 124.607 68.6205 124.237 69.5555L121.298 76.9728C120.845 78.1177 119.476 78.5825 118.419 77.9505L98.9203 66.2891C97.7428 65.5849 97.6045 63.9298 98.649 63.0423L104.52 58.0542C105.153 57.5156 106.055 57.4273 106.782 57.8326L123.349 67.0649Z" fill="#FFC84A"/>
<path d="M25.1163 18.5416C24.5128 17.4624 25.0234 16.0973 26.1873 15.6785L35.3743 12.3731C36.3537 12.0208 37.438 12.479 37.8678 13.4268L46.3933 32.2297C46.9226 33.397 46.233 34.7562 44.9786 35.0184L36.8792 36.7111C36.0252 36.8896 35.1552 36.4932 34.7294 35.7319L25.1163 18.5416Z" fill="#FFC84A"/>
<path d="M7.34449 47.4313C6.17814 46.7529 6.00177 45.1353 6.99462 44.2225L13.673 38.0823C14.3479 37.4619 15.3576 37.3818 16.1226 37.888L33.9251 49.6685C34.9735 50.3623 35.1322 51.8417 34.2546 52.741L28.9015 58.2272C28.2631 58.8815 27.2628 59.0177 26.4723 58.5579L7.34449 47.4313Z" fill="#FFC84A"/>
<path d="M11.4036 85.3119C10.4305 85.3699 9.55792 84.7179 9.33782 83.7683L7.55817 76.0906C7.26745 74.8363 8.22034 73.6373 9.50779 73.6373L33.6624 73.6373C35.0291 73.6373 35.9922 74.9781 35.5563 76.274L33.3791 82.7473C33.119 83.5207 32.4154 84.0589 31.6012 84.1074L11.4036 85.3119Z" fill="#FFC84A"/>
<path d="M5.64641 94.7385C4.19248 93.6183 4.93701 91.3099 6.76785 91.171C12.0443 90.7707 20.2323 89.9426 26.104 88.3842C31.8355 86.863 35.2171 86.163 40.4159 83.3039C42.2968 82.2695 44.711 80.5764 46.1247 79.5527C46.8313 79.041 47.7872 79.0247 48.523 79.4921C51.9524 81.6704 62.0415 87.4511 71.3881 86.6358C82.87 85.6343 87.9321 72.9876 93.1646 72.2539C98.397 71.5201 100.105 79.2724 114.199 75.6977C123.647 73.3012 135.355 67.88 142.046 64.5668C143.772 63.712 145.611 65.5127 144.726 67.224C141.599 73.2738 136.203 82.9678 131.064 88.6311C128.742 91.1892 127.351 92.5022 124.826 94.7396C122.159 97.103 120.583 98.293 117.755 100.355C102.315 111.614 91.7382 116.066 74.0402 118.547C56.3422 121.029 49.3896 118.716 34.3136 112.701C24.5972 108.825 12.0256 99.6534 5.64641 94.7385Z" fill="#4EB4DC"/>
</svg>
