<?xml version="1.0"?>
<svg xmlns="http://www.w3.org/2000/svg" xmlns:xlink="http://www.w3.org/1999/xlink" xmlns:svgjs="http://svgjs.com/svgjs" version="1.1" width="512" height="512" x="0" y="0" viewBox="0 0 511.996 511" style="enable-background:new 0 0 512 512" xml:space="preserve" class=""><g><path xmlns="http://www.w3.org/2000/svg" d="m500.324219 481.257812v-292.125c6.460937-1.664062 11.242187-7.515624 11.242187-14.496093v-52.140625h-511.566406v52.140625c0 7.546875 5.582031 13.773437 12.839844 14.816406v291.804687c-6.683594 1.507813-11.679688 7.46875-11.679688 14.609376 0 8.277343 6.710938 14.984374 14.988282 14.984374h23.355468c8.273438 0 14.984375-6.707031 14.984375-14.984374 0-7.140626-4.996093-13.101563-11.675781-14.609376v-199.859374l109.265625-91.773438h209.003906l109.265625 91.773438v199.859374c-6.683594 1.507813-11.679687 7.46875-11.679687 14.609376 0 8.277343 6.710937 14.984374 14.988281 14.984374h23.351562c8.277344 0 14.988282-6.707031 14.988282-14.984374.003906-7.140626-4.992188-13.101563-11.671875-14.609376zm-457.511719-239.007812v-52.625h62.660156zm427.535156 0-62.660156-52.625h62.660156zm0 0" fill="#3fb5de" data-original="#000000" style="" class=""/><path xmlns="http://www.w3.org/2000/svg" d="m491.515625 96.515625-230.015625-94.886719c-3.660156-1.507812-7.769531-1.507812-11.429688 0l-230.015624 94.886719zm0 0" fill="#3fb5de" data-original="#000000" style="" class=""/><path xmlns="http://www.w3.org/2000/svg" d="m373.632812 378.292969h-235.542968c-8.277344 0-14.988282 6.710937-14.988282 14.988281v42.902344c0 8.277344 6.710938 14.988281 14.988282 14.988281h15.039062v44.828125c0 8.277344 6.710938 14.984375 14.988282 14.984375 8.277343 0 14.984374-6.707031 14.984374-14.984375v-44.828125h146.960938v44.828125c0 8.277344 6.710938 14.984375 14.988281 14.984375 8.273438 0 14.984375-6.707031 14.984375-14.984375v-44.828125h13.597656c8.273438 0 14.984376-6.710937 14.984376-14.988281v-42.902344c0-8.277344-6.707032-14.988281-14.984376-14.988281zm0 0" fill="#3fb5de" data-original="#000000" style="" class=""/></g></svg>
