<svg width="154" height="130" viewBox="0 0 154 130" fill="none" xmlns="http://www.w3.org/2000/svg">
<ellipse cx="67.6113" cy="60.0942" rx="20.967" ry="21.033" fill="#FFC84A"/>
<path d="M66.3784 2.17715C66.8482 1.03625 68.227 0.590799 69.2752 1.24126L77.8919 6.58829C78.8462 7.18043 79.1282 8.443 78.5166 9.38443L67.0695 27.0046C66.3659 28.0877 64.8368 28.2267 63.9474 27.2885L59.3276 22.4148C58.7839 21.8412 58.6275 21.0012 58.9282 20.2708L66.3784 2.17715Z" fill="#FFC84A"/>
<path d="M102.957 12.9069C103.854 12.2209 105.138 12.4134 105.793 13.3321L110.335 19.7004C111.018 20.6585 110.731 21.9991 109.716 22.5944L92.0201 32.9662C90.8527 33.6505 89.36 33.0005 89.0642 31.6791L87.7876 25.9764C87.6167 25.2131 87.9053 24.4194 88.5263 23.9444L102.957 12.9069Z" fill="#FFC84A"/>
<path d="M122.209 35.0906C123.316 34.868 124.387 35.6052 124.574 36.7185L125.875 44.442C126.071 45.6026 125.227 46.6805 124.053 46.7692L103.618 48.3129C102.269 48.4148 101.211 47.1759 101.522 45.8593L102.866 40.169C103.046 39.4081 103.653 38.8215 104.419 38.6674L122.209 35.0906Z" fill="#FFC84A"/>
<path d="M123.066 67.0649C123.945 67.5543 124.325 68.6205 123.954 69.5555L121.016 76.9728C120.562 78.1177 119.194 78.5825 118.137 77.9505L98.638 66.2891C97.4605 65.5849 97.3222 63.9298 98.3666 63.0423L104.237 58.0542C104.871 57.5156 105.772 57.4273 106.499 57.8326L123.066 67.0649Z" fill="#FFC84A"/>
<path d="M24.834 18.5415C24.2304 17.4622 24.741 16.0972 25.9049 15.6784L35.092 12.373C36.0713 12.0207 37.1557 12.4789 37.5854 13.4266L46.1109 32.2296C46.6402 33.3969 45.9507 34.7561 44.6962 35.0183L36.5968 36.711C35.7429 36.8894 34.8728 36.4931 34.4471 35.7317L24.834 18.5415Z" fill="#FFC84A"/>
<path d="M7.06214 47.4313C5.89579 46.7529 5.71943 45.1353 6.71227 44.2225L13.3907 38.0823C14.0655 37.4619 15.0753 37.3818 15.8403 37.888L33.6428 49.6685C34.6911 50.3623 34.8498 51.8417 33.9723 52.741L28.6192 58.2272C27.9807 58.8815 26.9804 59.0177 26.19 58.5579L7.06214 47.4313Z" fill="#FFC84A"/>
<path d="M11.1212 85.3118C10.1482 85.3698 9.27557 84.7178 9.05547 83.7682L7.27582 76.0904C6.9851 74.8362 7.93799 73.6372 9.22544 73.6372L33.38 73.6372C34.7468 73.6372 35.7098 74.9779 35.274 76.2739L33.0967 82.7472C32.8366 83.5206 32.1331 84.0588 31.3189 84.1073L11.1212 85.3118Z" fill="#FFC84A"/>
<path d="M6.14827 94.5147C4.55404 93.4504 5.24546 90.9419 7.15669 90.7861C12.4346 90.3558 20.1611 89.5247 25.7764 88.0591C31.5113 86.5622 34.894 85.87 40.1028 83.0833C42.0014 82.0676 44.4441 80.4036 45.8571 79.4103C46.5513 78.9224 47.4747 78.9048 48.1979 79.3473C51.5907 81.4235 61.6718 86.9884 71.0386 86.1542C82.5177 85.1319 87.6363 72.8913 92.8688 72.1575C98.1013 71.4238 99.7712 78.9043 113.873 75.3839C123.296 73.0315 134.976 67.7654 141.689 64.5302C143.428 63.6918 145.248 65.5189 144.331 67.2187C141.164 73.0876 135.78 82.3534 130.665 87.797C128.333 90.2791 126.937 91.5542 124.403 93.7275C121.726 96.0232 119.934 96.9108 117.31 99.1857C100.218 114 92.9156 117.018 75.2177 119.5C57.5197 121.982 49.2177 119.5 33.8653 111.51C24.9949 106.894 12.8448 98.9852 6.14827 94.5147Z" fill="#4EB4DC"/>
</svg>
