<?xml version="1.0"?>
<svg xmlns="http://www.w3.org/2000/svg" xmlns:xlink="http://www.w3.org/1999/xlink" xmlns:svgjs="http://svgjs.com/svgjs" version="1.1" width="512" height="512" x="0" y="0" viewBox="0 0 512 512" style="enable-background:new 0 0 512 512" xml:space="preserve" class=""><g>
<g xmlns="http://www.w3.org/2000/svg">
	<g>
		<path d="M497,462.497h-4.741V34.502c0-8.284-6.716-15-15-15s-15,6.716-15,15v7.665H49.741v-7.665c0-8.284-6.716-15-15-15    s-15,6.716-15,15v427.997H15c-8.284,0-15,6.716-15,15s6.716,15,15,15h39.482c8.284,0,15-6.716,15-15s-6.716-15-15-15h-4.741    V72.166h126.813v262.865h-16.976c-8.284,0-15,6.716-15,15v15.32c-4.19,2.661-6.979,7.33-6.979,12.66v15.566    c0,5.33,2.789,10,6.979,12.66v15.32c0,8.284,6.716,15,15,15h192.844c8.284,0,15-6.716,15-15v-15.32    c4.19-2.661,6.979-7.33,6.979-12.66v-15.566c0-5.33-2.789-10-6.979-12.66v-15.32c0-8.284-6.716-15-15-15h-16.976V72.166h126.813    v390.332h-4.741c-8.284,0-15,6.716-15,15s6.716,15,15,15H497c8.284,0,15-6.716,15-15S505.284,462.497,497,462.497z     M305.447,335.031h-98.893v-0.001V72.166h98.893V335.031z" fill="#3fb5de" data-original="#000000" style="" class=""/>
	</g>
</g>
<g xmlns="http://www.w3.org/2000/svg">
</g>
<g xmlns="http://www.w3.org/2000/svg">
</g>
<g xmlns="http://www.w3.org/2000/svg">
</g>
<g xmlns="http://www.w3.org/2000/svg">
</g>
<g xmlns="http://www.w3.org/2000/svg">
</g>
<g xmlns="http://www.w3.org/2000/svg">
</g>
<g xmlns="http://www.w3.org/2000/svg">
</g>
<g xmlns="http://www.w3.org/2000/svg">
</g>
<g xmlns="http://www.w3.org/2000/svg">
</g>
<g xmlns="http://www.w3.org/2000/svg">
</g>
<g xmlns="http://www.w3.org/2000/svg">
</g>
<g xmlns="http://www.w3.org/2000/svg">
</g>
<g xmlns="http://www.w3.org/2000/svg">
</g>
<g xmlns="http://www.w3.org/2000/svg">
</g>
<g xmlns="http://www.w3.org/2000/svg">
</g>
</g></svg>
