<svg width="294" height="54" viewBox="0 0 294 54" fill="none" xmlns="http://www.w3.org/2000/svg">
<path d="M30.6627 39.599C30.6627 38.5269 30.4959 37.574 30.1624 36.7401C29.8526 35.9063 29.2928 35.1439 28.4828 34.453C27.6728 33.7621 26.5292 33.0951 25.0521 32.4518C23.5989 31.7848 21.7406 31.1058 19.4773 30.4149C16.9996 29.6525 14.7125 28.8068 12.616 27.8776C10.5433 26.9247 8.7327 25.8288 7.18414 24.5899C5.63558 23.3272 4.43247 21.8859 3.57481 20.2659C2.71715 18.622 2.28831 16.728 2.28831 14.5838C2.28831 12.4635 2.72906 10.5338 3.61054 8.79463C4.51586 7.05548 5.79044 5.55457 7.43429 4.2919C9.10197 3.0054 11.0674 2.01671 13.3307 1.32581C15.594 0.611092 18.0955 0.253732 20.8353 0.253732C24.6948 0.253732 28.0182 0.968452 30.8056 2.39789C33.6168 3.82733 35.7729 5.74516 37.2738 8.15138C38.7985 10.5576 39.5609 13.214 39.5609 16.1205H30.6627C30.6627 14.4052 30.2934 12.8923 29.5548 11.582C28.8401 10.2479 27.7442 9.19963 26.2671 8.43727C24.8139 7.6749 22.9675 7.29372 20.7281 7.29372C18.6077 7.29372 16.8448 7.61534 15.4391 8.25859C14.0335 8.90183 12.9853 9.77141 12.2944 10.8673C11.6035 11.9632 11.258 13.2021 11.258 14.5838C11.258 15.5606 11.4844 16.454 11.937 17.264C12.3897 18.0502 13.0806 18.7888 14.0097 19.4797C14.9388 20.1467 16.1062 20.7781 17.5118 21.3737C18.9174 21.9693 20.5732 22.5411 22.4791 23.089C25.3618 23.9467 27.8753 24.8996 30.0194 25.9479C32.1636 26.9723 33.9504 28.1397 35.3798 29.45C36.8092 30.7603 37.8813 32.2493 38.596 33.917C39.3108 35.5609 39.6681 37.431 39.6681 39.5275C39.6681 41.7194 39.2274 43.6967 38.3459 45.4597C37.4644 47.1989 36.2017 48.6879 34.5579 49.9267C32.9379 51.1417 30.9843 52.0828 28.6972 52.7498C26.4339 53.3931 23.9086 53.7147 21.1212 53.7147C18.6196 53.7147 16.1539 53.3812 13.7238 52.7141C11.3176 52.047 9.12579 51.0345 7.1484 49.6766C5.17101 48.2948 3.59863 46.5794 2.43126 44.5306C1.26388 42.4579 0.680197 40.0398 0.680197 37.2762H9.64992C9.64992 38.9677 9.93581 40.409 10.5076 41.6002C11.1032 42.7914 11.9251 43.7682 12.9734 44.5306C14.0216 45.2691 15.2366 45.8171 16.6184 46.1744C18.024 46.5318 19.525 46.7105 21.1212 46.7105C23.2177 46.7105 24.9687 46.4127 26.3743 45.8171C27.8038 45.2215 28.8759 44.3876 29.5906 43.3156C30.3053 42.2435 30.6627 41.0046 30.6627 39.599ZM66.8975 43.4942L80.5844 0.968452H90.4832L71.8291 53H65.1464L66.8975 43.4942ZM54.247 0.968452L67.8266 43.4942L69.6849 53H62.9665L44.3838 0.968452H54.247ZM107.349 0.968452V53H98.3794V0.968452H107.349Z" fill="#FFC84A"/>
<path d="M152.554 45.8885V53H126.431V45.8885H152.554ZM128.932 0.968452V53H119.963V0.968452H128.932ZM181.927 7.90123L166.382 53H156.984L176.567 0.968452H182.57L181.927 7.90123ZM194.935 53L179.354 7.90123L178.675 0.968452H184.715L204.369 53H194.935ZM194.185 33.7026V40.814H165.882V33.7026H194.185ZM220.628 0.968452V53H211.658V0.968452H220.628ZM251.897 0.968452L230.813 26.0194L218.805 38.7414L217.233 29.8431L225.81 19.2653L240.962 0.968452H251.897ZM242.248 53L225.131 28.3422L231.313 22.2313L252.897 53H242.248ZM293.421 45.8885V53H265.797V45.8885H293.421ZM268.334 0.968452V53H259.364V0.968452H268.334ZM289.811 22.6959V29.7002H265.797V22.6959H289.811ZM293.242 0.968452V8.11564H265.797V0.968452H293.242Z" fill="#4AAACF"/>
</svg>
